<svg width="170" height="23" viewBox="0 0 170 23" fill="none" xmlns="http://www.w3.org/2000/svg">
<path d="M26.2217 7.76302C26.3531 9.11094 26.3971 10.4656 26.3535 11.8189C26.3173 13.1638 26.1181 14.4999 25.7602 15.7995C25.4164 17.0934 24.7708 18.2928 23.8735 19.3047C23.1104 20.1114 22.1571 20.7254 21.0957 21.0938C21.5039 20.7046 21.857 20.2644 22.1459 19.7846C22.4485 19.2767 22.6953 18.7393 22.8824 18.1813C23.067 17.626 23.2061 17.0573 23.2984 16.4807C23.3923 15.9074 23.45 15.3292 23.4712 14.7491C23.5103 13.5937 23.4548 12.4371 23.3052 11.2903C23.2325 10.7176 23.1438 10.1492 23.0347 9.57864C22.9256 9.00808 22.7915 8.44416 22.6392 7.88465C22.621 7.81167 22.5983 7.74091 22.5778 7.66351L22.8574 7.52418C23.4636 7.22932 24.0758 6.95952 24.6941 6.71478C25.1336 6.54229 25.5761 6.38085 26.0216 6.23047C26.1058 6.7369 26.174 7.24332 26.2217 7.75417" fill="#75BB44"/>
<path d="M22.1659 1.22985C22.678 0.877205 23.1989 0.537784 23.7243 0.220403C23.8435 0.145466 23.9649 0.0749371 24.0863 0C24.6245 1.49863 25.0669 3.02984 25.4108 4.58439C24.2403 5.06151 23.1012 5.61215 22.0003 6.23301C21.7972 5.56004 21.5765 4.89883 21.3381 4.24938C21.1438 3.70718 20.9385 3.1716 20.7244 2.63823C20.6891 2.55007 20.6537 2.46191 20.6162 2.37374C21.1239 1.98143 21.639 1.60233 22.1614 1.23646" fill="#75BB44"/>
<path d="M16.4043 6.29827C17.2623 5.40058 18.1659 4.54837 19.1113 3.74505C19.2662 3.61299 19.4233 3.48533 19.5803 3.35547C19.8203 3.84997 20.0508 4.35108 20.2718 4.85878C20.5685 5.54331 20.8455 6.23444 21.0964 6.93658C20.2278 7.47694 19.3956 8.07473 18.6053 8.72603C18.4598 8.85222 18.3144 8.97988 18.169 9.10901L17.9858 8.78986C17.4823 7.9594 16.9195 7.16712 16.3018 6.41933C16.341 6.37971 16.3781 6.33789 16.4152 6.29827" fill="#75BB44"/>
<path d="M15.8206 11.986L15.7592 11.9006C15.3418 11.351 14.8952 10.8254 14.4214 10.3264C14.2525 10.1464 14.0793 9.97328 13.9038 9.80236C13.9915 9.65618 14.0814 9.51001 14.1736 9.36833C14.6708 8.60301 15.2212 7.87548 15.8206 7.19141C16.4206 7.87544 16.9718 8.60297 17.4698 9.36833C17.5619 9.51001 17.6518 9.65618 17.7395 9.80236C17.5619 9.97328 17.3886 10.1464 17.2219 10.3264C16.7481 10.8254 16.3015 11.351 15.8842 11.9006C15.8622 11.9298 15.8425 11.959 15.8206 11.986Z" fill="#75BB44"/>
<path d="M12.2469 3.74505C13.2843 4.54783 14.2752 5.40007 15.2156 6.29827L15.3424 6.41933C14.6612 7.16683 14.0403 7.95912 13.4847 8.78986C13.4152 8.89551 13.3482 9.00996 13.2812 9.10901C13.1208 8.97915 12.9604 8.85149 12.8024 8.72603C11.9355 8.07404 11.0222 7.47621 10.0684 6.93658C10.3437 6.23444 10.6477 5.54331 10.9733 4.85878C11.2143 4.35254 11.4673 3.85144 11.7322 3.35547C11.9046 3.48533 12.077 3.61299 12.2469 3.74505Z" fill="#75BB44"/>
<path d="M9.0021 1.23646C9.52477 1.60233 10.0401 1.98143 10.548 2.37374L10.442 2.63823C10.2212 3.1716 10.0202 3.70718 9.82586 4.24938C9.58735 4.90765 9.3665 5.56886 9.16332 6.23301C8.0627 5.61216 6.92379 5.06152 5.75342 4.58439C6.09652 3.02958 6.53913 1.49831 7.07851 0C7.19998 0.0705291 7.31923 0.141058 7.4407 0.220403C7.96632 0.537784 8.48752 0.881614 8.99989 1.22985" fill="#75BB44"/>
<path d="M8.17357 14.7453C8.19474 15.3257 8.25241 15.9043 8.34626 16.4779C8.43826 17.055 8.5773 17.624 8.76207 18.1795C8.9483 18.7379 9.19429 19.2756 9.49599 19.7838C9.78496 20.2643 10.1388 20.7049 10.548 21.0938C9.4863 20.7255 8.53257 20.1111 7.76912 19.3036C6.87222 18.2911 6.2269 17.091 5.88321 15.7964C5.52548 14.496 5.32642 13.1591 5.29017 11.8133C5.24663 10.4592 5.29064 9.1038 5.42196 7.75508C5.46967 7.24393 5.53784 6.7372 5.61964 6.23047C6.07407 6.37799 6.51715 6.53952 6.94887 6.71507C7.56917 6.9629 8.18266 7.23286 8.78479 7.52495L9.062 7.66436C9.04382 7.73738 9.0211 7.80819 9.00065 7.88564C8.84917 8.44621 8.71814 9.01121 8.60756 9.58064C8.4985 10.1515 8.40988 10.7202 8.33717 11.2933C8.18762 12.4408 8.13215 13.5981 8.1713 14.7541" fill="#75BB44"/>
<path d="M13.8963 21.8826C13.6331 21.749 13.3891 21.5798 13.171 21.3796C12.7288 20.9667 12.3711 20.4698 12.1182 19.9172C11.6238 18.7798 11.4241 17.5334 11.5379 16.296C11.6468 15.0491 11.9432 13.8264 12.4171 12.6702C12.6475 12.0874 12.9102 11.5182 13.204 10.9653C13.2765 10.8251 13.3512 10.6849 13.4238 10.5469C13.5534 10.6626 13.6787 10.7694 13.804 10.8985C14.2787 11.3485 14.7292 11.824 15.1535 12.323L15.3425 12.5456C14.7152 13.4295 14.1985 14.3887 13.804 15.4012C13.5533 16.0472 13.3727 16.7189 13.2655 17.4044C13.1538 18.0971 13.1419 18.8026 13.2303 19.4988C13.3138 20.2111 13.5534 20.8954 13.9315 21.502C14.0653 21.7035 14.2217 21.8887 14.3974 22.054C14.224 22.0105 14.0553 21.9494 13.8941 21.8714" fill="#195236"/>
<path d="M3.97359 17.0648C3.02161 15.9784 2.22879 14.7592 1.61943 13.4446C1.31381 12.7912 1.0502 12.1186 0.830242 11.4309C0.604994 10.7492 0.428663 10.052 0.302624 9.34473C0.175819 8.63478 0.0914565 7.91774 0.0499938 7.19751C0.00304478 6.47573 -0.0081346 5.74944 0.00527942 5.02314V4.79688C0.403229 4.84665 0.800433 4.90473 1.19689 4.9711C1.84747 5.0797 2.49135 5.22225 3.13075 5.38063C3.70308 5.52091 4.26945 5.6808 4.82986 5.8603C4.75384 6.44406 4.69795 7.03007 4.66665 7.61835C4.58281 9.02895 4.58281 10.4434 4.66665 11.854C4.74512 13.2721 4.97678 14.6772 5.35747 16.0443C5.55728 16.737 5.82152 17.409 6.14666 18.0513C6.47563 18.6906 6.88438 19.2845 7.36287 19.8184C7.46124 19.9292 7.56408 20.0446 7.67139 20.1397C7.52607 20.0514 7.38299 19.9632 7.24214 19.8727C6.02963 19.094 4.92773 18.1516 3.96689 17.0716" fill="#195236"/>
<path d="M12.0918 21.8105C11.5947 21.5907 11.1392 21.2802 10.7464 20.8936C9.9655 20.0899 9.39759 19.0885 9.09817 17.987C8.7854 16.878 8.62794 15.7276 8.6307 14.5715C8.62422 13.408 8.71454 12.246 8.90065 11.0988C9.07476 9.9509 9.33154 8.81838 9.6688 7.71084L9.68197 7.67188C10.4756 8.13791 11.2382 8.65944 11.9645 9.2329C12.162 9.38877 12.353 9.54923 12.5417 9.71198C12.146 10.4998 11.8 11.3138 11.5058 12.1486C11.0537 13.4077 10.7801 14.729 10.6937 16.0707C10.6561 16.7454 10.6877 17.4224 10.7881 18.0901C10.8878 18.7628 11.0785 19.4173 11.3544 20.034C11.6297 20.6626 12.0213 21.2281 12.5066 21.6981C12.6447 21.8279 12.7914 21.9474 12.9455 22.0557C12.6528 22.0051 12.3665 21.9206 12.0918 21.8036" fill="#195236"/>
<path d="M15.5762 22.0549C15.2874 22.0593 15.0043 21.9761 14.7649 21.8165C14.509 21.6443 14.2903 21.4235 14.1214 21.1671C13.7683 20.6241 13.5466 20.0079 13.4734 19.3665C13.3929 18.712 13.4115 18.0493 13.5285 17.4002C13.6474 16.746 13.8377 16.1065 14.0962 15.4929C14.4864 14.5882 14.9848 13.733 15.5807 12.9453C16.1767 13.733 16.6751 14.5882 17.0653 15.4929C17.3256 16.1061 17.5167 16.7457 17.6353 17.4002C17.7523 18.0493 17.7709 18.712 17.6904 19.3665C17.6151 20.0075 17.3935 20.6231 17.0424 21.1671C16.8735 21.4235 16.6548 21.6443 16.3989 21.8165C16.1595 21.9761 15.8764 22.0593 15.5876 22.0549" fill="#195236"/>
<path d="M17.7175 21.4914C18.0959 20.885 18.3362 20.2015 18.421 19.4902C18.5097 18.7946 18.4978 18.0898 18.3857 17.3978C18.2781 16.7129 18.097 16.0419 17.8454 15.3965C17.4497 14.385 16.9312 13.4267 16.3018 12.5437L16.4914 12.3213C16.9171 11.8228 17.3691 11.3477 17.8454 10.8982C17.9711 10.7781 18.0969 10.6625 18.2248 10.5469C18.3019 10.6847 18.3791 10.8248 18.4453 10.9649C18.74 11.5173 19.0036 12.0859 19.2348 12.6682C19.7067 13.8237 20.0005 15.0453 20.1059 16.2904C20.2208 17.5264 20.0211 18.7716 19.5259 19.9082C19.2721 20.4603 18.9132 20.9566 18.4695 21.3691C18.2507 21.5691 18.0059 21.7382 17.7418 21.8716C17.58 21.9495 17.4108 22.0106 17.2368 22.054C17.4131 21.8889 17.57 21.7038 17.7043 21.5025" fill="#195236"/>
<path d="M19.0708 21.8036C18.7969 21.9208 18.5113 22.0054 18.2192 22.0557C18.3734 21.9474 18.52 21.8279 18.6582 21.6981C19.1435 21.2281 19.5351 20.6626 19.8105 20.034C20.0863 19.4173 20.277 18.7628 20.3767 18.0901C20.4771 17.4224 20.5087 16.7454 20.4711 16.0707C20.385 14.7287 20.1107 13.4073 19.6568 12.1486C19.3644 11.313 19.0183 10.4989 18.6209 9.71197C18.8118 9.54923 19.0028 9.38877 19.2003 9.2329C19.9266 8.65944 20.6892 8.13791 21.4829 7.67188C21.4829 7.68563 21.4829 7.69709 21.4938 7.71084C21.8329 8.81802 22.0904 9.95063 22.2642 11.0988C22.4492 12.2462 22.5396 13.408 22.5342 14.5715C22.5369 15.7276 22.3795 16.878 22.0667 17.987C21.7673 19.0885 21.1993 20.0899 20.4184 20.8936C20.0252 21.2808 19.5688 21.5913 19.0708 21.8105" fill="#195236"/>
<path d="M31.6392 5.03463C31.6535 5.76146 31.6392 6.4883 31.5918 7.2106C31.5466 7.93126 31.457 8.64877 31.3236 9.35941C31.1887 10.067 31.0015 10.7646 30.7634 11.4471C30.5299 12.1353 30.2501 12.8085 29.9256 13.4623C29.2787 14.7779 28.4371 15.9979 27.4264 17.0851C26.4053 18.1604 25.2355 19.0981 23.9493 19.8725C23.7998 19.963 23.6479 20.0536 23.4937 20.1397C23.6052 20.0355 23.7144 19.9291 23.8212 19.8181C24.3292 19.2844 24.7624 18.6899 25.11 18.0497C25.4543 17.4124 25.734 16.7452 25.9454 16.0572C26.35 14.6892 26.5951 13.2829 26.6764 11.8637C26.7654 10.4528 26.7654 9.03811 26.6764 7.62723C26.6432 7.03625 26.5838 6.4498 26.5032 5.86562C27.1044 5.69353 27.7073 5.53201 28.3117 5.38106C28.9929 5.22256 29.6764 5.07991 30.3647 4.97123C30.7872 4.90556 31.2096 4.84895 31.6321 4.79688V5.0233" fill="#195236"/>
<path d="M41.7256 4.05078H45.7838L47.9452 9.93008C48.2161 10.7241 48.4367 11.6063 48.7013 12.4507H48.7896C49.0542 11.6063 49.2748 10.7241 49.5394 9.93008L51.6189 4.05078H55.6834V18.393H52.2491V14.171C52.3224 12.454 52.4843 10.7419 52.7343 9.04157H52.6461L51.4551 12.4948L49.6844 17.2461H47.6742L45.9098 12.4948L44.7566 9.04157H44.6684C44.9183 10.7419 45.0803 12.454 45.1536 14.171V18.393H41.7508L41.7256 4.05078Z" fill="#231F20"/>
<path d="M61.4489 4.05078H66.049L70.4222 18.393H66.4019L64.7635 11.4613C64.4106 10.0939 64.0577 8.3484 63.7048 6.91166H63.6166C63.3078 8.3673 62.9864 10.0939 62.5957 11.4613L60.9637 18.393H57.0693L61.4489 4.05078ZM60.1886 12.4255H67.24V15.3683H60.2075L60.1886 12.4255Z" fill="#231F20"/>
<path d="M71.5762 4.05078H75.3823V15.2359H80.8205V18.4182H71.5762V4.05078Z" fill="#231F20"/>
<path d="M87.0977 4.05078H83.2979V18.4182H87.0977V4.05078Z" fill="#231F20"/>
<path d="M90.2861 4.05078H94.0859V9.40075H94.1742L97.7975 4.05078H101.957L97.6715 9.88597L102.795 18.4182H98.6419L95.4597 12.8918L94.0859 14.8389V18.4182H90.2861V4.05078Z" fill="#231F20"/>
<path d="M107.709 16.63L109.877 14.0212C110.818 14.8328 111.996 15.3209 113.235 15.4138C114.382 15.4138 114.867 15.0357 114.867 14.393C114.867 13.7502 114.143 13.4919 112.927 13.0003L111.137 12.2505C110.296 11.97 109.565 11.4332 109.045 10.7155C108.525 9.99779 108.243 9.13523 108.238 8.24901C108.238 5.79773 110.45 3.78125 113.588 3.78125C115.369 3.78659 117.079 4.47706 118.365 5.70951L116.474 8.09778C115.656 7.43767 114.64 7.06956 113.588 7.05173C112.662 7.05173 112.082 7.3794 112.082 8.02216C112.082 8.66491 112.901 8.94849 114.206 9.45891L115.951 10.1458C117.747 10.8515 118.762 12.0929 118.762 14.0779C118.762 16.5103 116.726 18.678 113.147 18.678C111.146 18.6701 109.215 17.9407 107.709 16.6237" fill="#231F20"/>
<path d="M121.062 4.05078H130.35V7.23303H124.868V9.48897H129.55V12.6712H124.868V15.2359H130.571V18.4182H121.062V4.05078Z" fill="#231F20"/>
<path d="M133.356 4.05078H142.644V7.23303H137.156V9.48897H141.844V12.6712H137.156V15.2359H142.865V18.4182H133.356V4.05078Z" fill="#231F20"/>
<path d="M145.65 4.05078H149.898C154.271 4.05078 157.277 6.07986 157.277 11.1652C157.277 16.2505 154.271 18.393 150.118 18.393H145.65V4.05078ZM149.677 15.3935C151.75 15.3935 153.389 14.5491 153.389 11.1904C153.389 7.83168 151.75 7.12591 149.677 7.12591H149.45V15.3683L149.677 15.3935Z" fill="#231F20"/>
<path d="M158.959 16.63L161.127 14.0212C162.072 14.8321 163.251 15.3201 164.492 15.4138C165.639 15.4138 166.124 15.0357 166.124 14.393C166.124 13.7502 165.393 13.4919 164.177 13.0003L162.362 12.2505C161.523 11.9681 160.793 11.4306 160.275 10.7132C159.756 9.99578 159.475 9.13423 159.47 8.24901C159.47 5.79773 161.675 3.78125 164.82 3.78125C166.598 3.7882 168.306 4.47856 169.59 5.70951L167.7 8.09778C166.883 7.4434 165.872 7.0778 164.826 7.05803C163.893 7.05803 163.32 7.38571 163.32 8.02846C163.32 8.67122 164.139 8.95478 165.444 9.46521L167.189 10.1521C168.979 10.8578 170 12.0992 170 14.0842C170 16.5166 167.964 18.6843 164.379 18.6843C162.378 18.6742 160.448 17.9451 158.94 16.63" fill="#231F20"/>
</svg>
